<svg width="0" height="0" >

  <symbol id="rocket-ico" xmlns="http://www.w3.org/2000/svg" viewBox="0 0 100 100" >
    <path  d="m50,.86C22.86.86.86,22.86.86,50s22,49.14,49.14,49.14,49.14-22,49.14-49.14S77.14.86,50,.86Zm-26.7,86.21l-.82-3.25c-.58-2.29-.27-4.72.87-6.8l8.08-14.6c1.2,4.94,2.62,10.11,4.39,16.59l-12.52,8.06Zm31.19,0h-8.96l-1.71-6.18h12.36l-1.69,6.18Zm-12.58-9.27c-3.81-14.01-7.35-26.16-7.35-36.48,0-11.44,4.67-20.67,15.44-28.39,10.99,7.77,15.57,16.76,15.44,28.28-.11,10.09-3.6,22.17-7.25,36.59h-16.29Zm35.61,6.01l-.82,3.25-12.45-8.02c1.76-6.86,3.02-11.69,4.23-16.81l8.17,14.78c1.14,2.07,1.45,4.5.87,6.79Z"></path>
    <path  d="m50.04,20.79c-3.87,3.27-6.72,7.58-8.2,12.43,2.6,1,5.38,1.45,8.16,1.34,2.82.13,5.64-.35,8.26-1.41-1.44-4.85-4.3-9.16-8.22-12.36Z"></path>
    
  </symbol>
  <symbol id="info-ico" xmlns="http://www.w3.org/2000/svg" viewBox="0 0 100 100">
    <path d="m50,99.14c27.14,0,49.14-22,49.14-49.14S77.14.86,50,.86.86,22.86.86,50s22,49.14,49.14,49.14Zm-7.68-33.79h4.61v-12.29h-4.61c-2.55,0-4.61-2.05-4.61-4.61s2.05-4.61,4.61-4.61h9.21c2.55,0,4.61,2.05,4.61,4.61v16.89h1.54c2.55,0,4.61,2.05,4.61,4.61s-2.05,4.61-4.61,4.61h-15.36c-2.55,0-4.61-2.05-4.61-4.61s2.05-4.61,4.61-4.61Zm7.68-39.93c3.39,0,6.14,2.75,6.14,6.14s-2.75,6.14-6.14,6.14-6.14-2.75-6.14-6.14,2.75-6.14,6.14-6.14Z"></path>
  </symbol>

  <symbol id="news-ico" xmlns="http://www.w3.org/2000/svg" viewBox="0 0 100 100">
    <path d="m71.98,65.98h-31.97c-1.1,0-2,.9-2,2s.9,2,2,2h31.97c1.1,0,2-.9,2-2s-.9-2-2-2Z"></path>
    <path d="m71.98,42.01h-5.99c-1.1,0-2,.9-2,2s.9,2,2,2h5.99c1.1,0,2-.9,2-2s-.9-2-2-2Z"></path>
    <rect x="38.01" y="30.02" width="19.98" height="15.98" rx="3" ry="3"></rect>
    <path d="m71.98,54h-31.97c-1.1,0-2,.9-2,2s.9,2,2,2h31.97c1.1,0,2-.9,2-2s-.9-2-2-2Z"></path>
    <path d="m50,.86C22.86.86.86,22.86.86,50s22,49.14,49.14,49.14,49.14-22,49.14-49.14S77.14.86,50,.86Zm31.97,69.12c0,4.41-3.58,7.99-7.99,7.99H28.02c-5.52,0-9.99-4.47-9.99-9.99v-33.96c0-2.21,1.79-4,4-4s4,1.79,4,4v33.96c0,1.1.9,2,2,2s2-.9,2-2V30.02c0-4.41,3.58-7.99,7.99-7.99h35.96c4.41,0,7.99,3.58,7.99,7.99v39.96Z"></path>
    <path d="m71.98,30.02h-5.99c-1.1,0-2,.9-2,2s.9,2,2,2h5.99c1.1,0,2-.9,2-2s-.9-2-2-2Z"></path>
  </symbol>
  
  <symbol id="twitter" xmlns="http://www.w3.org/2000/svg" viewBox="0 0 100 100">
    <path d="m86.14,4H13.86c-5.44,0-9.86,4.42-9.86,9.86v72.29c0,5.44,4.42,9.86,9.86,9.86h72.29c5.44,0,9.86-4.42,9.86-9.86V13.86c0-5.44-4.42-9.86-9.86-9.86Zm-10.04,32.61c.04.58.04,1.17.04,1.75,0,17.8-13.55,38.32-38.32,38.32-7.64,0-14.72-2.22-20.68-6.04,1.09.12,2.14.16,3.24.16,6.3,0,12.1-2.14,16.72-5.75-5.91-.12-10.88-4-12.59-9.34,2.07.31,3.94.31,6.08-.25-6.16-1.25-10.78-6.67-10.78-13.22v-.16c1.79,1.01,3.88,1.62,6.08,1.7-3.75-2.5-6-6.71-6-11.21,0-2.51.66-4.81,1.83-6.8,6.63,8.17,16.59,13.51,27.76,14.09-1.91-9.14,4.93-16.55,13.14-16.55,3.88,0,7.37,1.62,9.84,4.25,3.04-.58,5.96-1.7,8.54-3.24-1.01,3.12-3.12,5.75-5.91,7.41,2.71-.29,5.34-1.05,7.76-2.09-1.83,2.69-4.13,5.07-6.76,6.98Z"></path>
  </symbol>
  <symbol id="facebook" xmlns="http://www.w3.org/2000/svg" viewBox="0 0 100 100">
    <path d="m86.23,3.89H13.77c-5.46,0-9.88,4.42-9.88,9.88v72.46c0,5.46,4.42,9.88,9.88,9.88h28.25v-31.35h-12.97v-14.76h12.97v-11.25c0-12.79,7.62-19.86,19.28-19.86,5.59,0,11.43,1,11.43,1v12.56h-6.44c-6.34,0-8.32,3.94-8.32,7.97v9.58h14.16l-2.26,14.76h-11.89v31.35h28.25c5.46,0,9.88-4.42,9.88-9.88V13.77c0-5.46-4.42-9.88-9.88-9.88Z"></path>
  </symbol>
  <symbol id="linkedin" xmlns="http://www.w3.org/2000/svg" viewBox="0 0 100 100">
    <path d="m89.43,4H10.55c-3.61,0-6.55,2.98-6.55,6.63v78.73c0,3.66,2.94,6.63,6.55,6.63h78.88c3.61,0,6.57-2.98,6.57-6.63V10.63c0-3.66-2.96-6.63-6.57-6.63ZM31.81,82.86h-13.64v-43.91h13.66v43.91h-.02Zm-6.82-49.9c-4.37,0-7.91-3.55-7.91-7.91s3.53-7.91,7.91-7.91,7.91,3.55,7.91,7.91-3.53,7.91-7.91,7.91Zm57.93,49.9h-13.64v-21.36c0-5.09-.1-11.64-7.08-11.64s-8.19,5.54-8.19,11.27v21.73h-13.64v-43.91h13.08v6h.18c1.83-3.45,6.28-7.08,12.92-7.08,13.8,0,16.37,9.1,16.37,20.93v24.07Z"></path>
  </symbol>
  <symbol id="youtube" xmlns="http://www.w3.org/2000/svg" viewBox="0 0 100 100">
    <path d="m42.36,38.93l19.55,11.11-19.55,11.11v-22.22Zm53.64-25.07v72.29c0,5.44-4.42,9.86-9.86,9.86H13.86c-5.44,0-9.86-4.42-9.86-9.86V13.86c0-5.44,4.42-9.86,9.86-9.86h72.29c5.44,0,9.86,4.42,9.86,9.86Zm-8.62,36.2s0-12.24-1.56-18.11c-.86-3.24-3.39-5.79-6.61-6.65-5.81-1.58-29.2-1.58-29.2-1.58,0,0-23.39,0-29.2,1.58-3.22.86-5.75,3.41-6.61,6.65-1.56,5.85-1.56,18.11-1.56,18.11,0,0,0,12.24,1.56,18.11.86,3.24,3.39,5.69,6.61,6.55,5.81,1.56,29.2,1.56,29.2,1.56,0,0,23.39,0,29.2-1.58,3.22-.86,5.75-3.31,6.61-6.55,1.56-5.85,1.56-18.09,1.56-18.09Z"></path>
  </symbol>
  <symbol id="shop-ico" xmlns="http://www.w3.org/2000/svg" viewBox="0 0 100 100">
    <path d="m81.79,5.5H18.21c-7.01,0-12.71,5.7-12.71,12.71v63.57c0,7.01,5.7,12.71,12.71,12.71h63.57c7.01,0,12.71-5.7,12.71-12.71V18.21c0-7.01-5.7-12.71-12.71-12.71Zm-44.21,73.53c-3.01,0-5.44-2.44-5.44-5.44s2.44-5.44,5.44-5.44,5.44,2.44,5.44,5.44-2.44,5.44-5.44,5.44Zm32.66,0c-3.01,0-5.44-2.44-5.44-5.44s2.44-5.44,5.44-5.44,5.44,2.44,5.44,5.44-2.44,5.44-5.44,5.44Zm11.99-48.72l-4.65,17.27c-.96,3.56-4.2,6.04-7.88,6.04h-32.72l.61,3.23c.25,1.28,1.37,2.21,2.68,2.21h32.7c1.51,0,2.72,1.21,2.72,2.72s-1.21,2.72-2.72,2.72h-32.7c-3.92,0-7.29-2.79-8.02-6.63l-5.85-30.73c-.08-.43-.45-.74-.9-.74h-5.16c-1.51,0-2.72-1.21-2.72-2.72s1.21-2.72,2.72-2.72h5.16c2.49,0,4.71,1.45,5.74,3.63h46.61c2.98,0,5.16,2.84,4.38,5.72Z"></path>
  </symbol>
  <symbol id="mail-ico" xmlns="http://www.w3.org/2000/svg" viewBox="0 0 100 100">
    <path d="m18.21,4.92c-7.01,0-12.71,5.7-12.71,12.71v63.57c0,7.01,5.7,12.71,12.71,12.71h63.57c7.01,0,12.71-5.7,12.71-12.71V17.63c0-7.01-5.7-12.71-12.71-12.71H18.21Zm30.59,47.62l-30.55-19.73c.36-3.18,3.04-5.64,6.32-5.64h50.86c3.28,0,5.96,2.46,6.32,5.64l-30.55,19.73c-.36.24-.77.36-1.19.36s-.83-.12-1.19-.36Zm5.84,5.34l27.14-17.52v24.95c0,3.52-2.84,6.36-6.36,6.36H24.57c-3.52,0-6.36-2.84-6.36-6.36v-24.95l27.14,17.52c1.39.89,3,1.37,4.65,1.37s3.26-.48,4.65-1.37Z"></path>
  </symbol>
  <symbol id="phone-ico" xmlns="http://www.w3.org/2000/svg" viewBox="0 0 100 100">
    <path d="m18.12,5.38c-7.03,0-12.75,5.72-12.75,12.75v63.75c0,7.03,5.72,12.75,12.75,12.75h63.75c7.03,0,12.75-5.72,12.75-12.75V18.12c0-7.03-5.72-12.75-12.75-12.75H18.12Zm18.07,19.26c1.93-.52,3.96.46,4.72,2.31l3.98,9.56c.68,1.63.2,3.51-1.16,4.62l-4.9,4.02c3.31,7.01,8.98,12.69,16,16l4.02-4.92c1.12-1.35,2.99-1.83,4.62-1.16l9.56,3.98c1.85.78,2.83,2.79,2.31,4.72l-2.39,8.77c-.48,1.75-2.05,2.95-3.84,2.95-24.64,0-44.62-19.98-44.62-44.62,0-1.79,1.2-3.37,2.93-3.84l8.77-2.39Z"></path>
  </symbol>
  <symbol id="user-ico" xmlns="http://www.w3.org/2000/svg" viewBox="0 0 100 100">
    <path d="m81.87,5.38H18.12c-7.03,0-12.75,5.72-12.75,12.75v63.75c0,7.03,5.72,12.75,12.75,12.75h63.75c7.03,0,12.75-5.72,12.75-12.75V18.13c0-7.03-5.72-12.75-12.75-12.75Zm-31.88,11.98c10.14,0,18.36,8.22,18.36,18.36s-8.22,18.36-18.36,18.36-18.36-8.22-18.36-18.36,8.22-18.36,18.36-18.36Zm28.73,65.28H21.27c-2.15,0-3.91-1.75-3.91-3.91,0-11.36,9.21-20.57,20.57-20.57h24.15c11.36,0,20.57,9.21,20.57,20.57,0,2.15-1.75,3.91-3.91,3.91Z"></path>
  </symbol>
  
  <symbol id="support" xmlns="http://www.w3.org/2000/svg" viewBox="0 0 96 96">
    <g id="uuid-d39aa8e5-8fc5-4bb6-b005-5a0d4c1c0316">
      <path d="m48,0C21.49,0,0,21.49,0,48s21.49,48,48,48,48-21.49,48-48S74.51,0,48,0Zm-11.54,63.38h-1.92c-4.24,0-7.69-3.45-7.69-7.69v-5.77c0-4.24,3.45-7.69,7.69-7.69h1.92c2.13,0,3.85,1.72,3.85,3.85v13.46c0,2.13-1.72,3.85-3.85,3.85Zm42.3,1.93c0,5.84-4.74,10.58-10.59,10.58h-13.26c-1,1.71-2.86,2.87-5,2.87h-3.85c-3.18,0-5.77-2.58-5.77-5.77s2.58-5.77,5.77-5.77h3.85c2.14,0,4,1.17,5,2.88h13.27c2.66.01,4.81-2.14,4.81-4.8v-17.32c0-13.81-11.19-25-25-25s-25,11.19-25,25v4.81c0,1.6-1.29,2.88-2.88,2.88s-2.88-1.29-2.88-2.88v-4.81c0-16.99,13.77-30.77,30.77-30.77s30.77,13.77,30.77,30.77v17.32Zm-23.08-5.78v-13.46c0-2.13,1.72-3.85,3.85-3.85h1.92c4.24,0,7.69,3.45,7.69,7.69v5.77c0,4.24-3.45,7.69-7.69,7.69h-1.92c-2.13,0-3.85-1.72-3.85-3.85Z"></path>
    </g>
  </symbol>
<symbol id="arrow-left" data-name="Layer 1" xmlns="http://www.w3.org/2000/svg" viewBox="0 0 68.83 120.46">
  <path d="m2.52,54.16c-3.36,3.36-3.36,8.82,0,12.18l51.61,51.61c3.36,3.36,8.82,3.36,12.18,0,3.36-3.36,3.36-8.82,0-12.18L20.77,60.23,66.28,14.7c3.36-3.36,3.36-8.82,0-12.18s-8.82-3.36-12.18,0L2.49,54.13l.03.03Z"/>
</symbol>

  
</svg>



