<svg width="0" height="0" >

<defs><linearGradient id="a" x1=".86" x2="99.14" y1="51.11" y2="51.11" gradientUnits="userSpaceOnUse"><stop offset="0" stop-color="#a2a2a2"/><stop offset=".09" stop-color="#e6e6e6"/><stop offset=".14" stop-color="#ddd"/><stop offset=".2" stop-color="#cecece"/><stop offset=".32" stop-color="#dfdfdf"/><stop offset=".48" stop-color="#cdcdcd"/><stop offset=".55" stop-color="#cbcbcb"/><stop offset=".57" stop-color="#c4c4c4"/><stop offset=".57" stop-color="#c3c3c3"/><stop offset=".66" stop-color="silver"/><stop offset=".84" stop-color="#e6e6e6"/><stop offset=".87" stop-color="#e0e0e0"/><stop offset=".9" stop-color="#d0d0d0"/><stop offset=".94" stop-color="#b6b6b6"/><stop offset=".99" stop-color="#919191"/><stop offset=".99" stop-color="#8d8d8d"/></linearGradient></defs>




  <symbol id="rocket-ico" xmlns="http://www.w3.org/2000/svg" viewBox="0 0 100 100" >
    <path  d="m50,.86C22.86.86.86,22.86.86,50s22,49.14,49.14,49.14,49.14-22,49.14-49.14S77.14.86,50,.86Zm-26.7,86.21l-.82-3.25c-.58-2.29-.27-4.72.87-6.8l8.08-14.6c1.2,4.94,2.62,10.11,4.39,16.59l-12.52,8.06Zm31.19,0h-8.96l-1.71-6.18h12.36l-1.69,6.18Zm-12.58-9.27c-3.81-14.01-7.35-26.16-7.35-36.48,0-11.44,4.67-20.67,15.44-28.39,10.99,7.77,15.57,16.76,15.44,28.28-.11,10.09-3.6,22.17-7.25,36.59h-16.29Zm35.61,6.01l-.82,3.25-12.45-8.02c1.76-6.86,3.02-11.69,4.23-16.81l8.17,14.78c1.14,2.07,1.45,4.5.87,6.79Z"></path>
    <path  d="m50.04,20.79c-3.87,3.27-6.72,7.58-8.2,12.43,2.6,1,5.38,1.45,8.16,1.34,2.82.13,5.64-.35,8.26-1.41-1.44-4.85-4.3-9.16-8.22-12.36Z"></path>
    
    
 
  </symbol>
  <symbol id="info-ico" xmlns="http://www.w3.org/2000/svg" viewBox="0 0 100 100">
    <path d="m50,99.14c27.14,0,49.14-22,49.14-49.14S77.14.86,50,.86.86,22.86.86,50s22,49.14,49.14,49.14Zm-7.68-33.79h4.61v-12.29h-4.61c-2.55,0-4.61-2.05-4.61-4.61s2.05-4.61,4.61-4.61h9.21c2.55,0,4.61,2.05,4.61,4.61v16.89h1.54c2.55,0,4.61,2.05,4.61,4.61s-2.05,4.61-4.61,4.61h-15.36c-2.55,0-4.61-2.05-4.61-4.61s2.05-4.61,4.61-4.61Zm7.68-39.93c3.39,0,6.14,2.75,6.14,6.14s-2.75,6.14-6.14,6.14-6.14-2.75-6.14-6.14,2.75-6.14,6.14-6.14Z"></path>
  </symbol>

  <symbol id="news-ico" xmlns="http://www.w3.org/2000/svg" viewBox="0 0 100 100">
    <path d="m71.98,65.98h-31.97c-1.1,0-2,.9-2,2s.9,2,2,2h31.97c1.1,0,2-.9,2-2s-.9-2-2-2Z"></path>
    <path d="m71.98,42.01h-5.99c-1.1,0-2,.9-2,2s.9,2,2,2h5.99c1.1,0,2-.9,2-2s-.9-2-2-2Z"></path>
    <rect x="38.01" y="30.02" width="19.98" height="15.98" rx="3" ry="3"></rect>
    <path d="m71.98,54h-31.97c-1.1,0-2,.9-2,2s.9,2,2,2h31.97c1.1,0,2-.9,2-2s-.9-2-2-2Z"></path>
    <path d="m50,.86C22.86.86.86,22.86.86,50s22,49.14,49.14,49.14,49.14-22,49.14-49.14S77.14.86,50,.86Zm31.97,69.12c0,4.41-3.58,7.99-7.99,7.99H28.02c-5.52,0-9.99-4.47-9.99-9.99v-33.96c0-2.21,1.79-4,4-4s4,1.79,4,4v33.96c0,1.1.9,2,2,2s2-.9,2-2V30.02c0-4.41,3.58-7.99,7.99-7.99h35.96c4.41,0,7.99,3.58,7.99,7.99v39.96Z"></path>
    <path d="m71.98,30.02h-5.99c-1.1,0-2,.9-2,2s.9,2,2,2h5.99c1.1,0,2-.9,2-2s-.9-2-2-2Z"></path>
  </symbol>
  
  <symbol id="profile-ico" xmlns="http://www.w3.org/2000/svg" viewBox="0 0 100 100">
    <path d="m50.5,1.5C23.44,1.5,1.5,23.44,1.5,50.5s21.94,49,49,49,49-21.94,49-49S77.56,1.5,50.5,1.5Zm0,14.65c8.95,0,16.21,7.26,16.21,16.21s-7.26,16.21-16.21,16.21-16.21-7.26-16.21-16.21c0-8.95,7.26-16.21,16.21-16.21Zm-.01,70.54c-8.93,0-17.11-3.25-23.42-8.63-1.54-1.31-2.42-3.23-2.42-5.25,0-9.08,7.35-16.34,16.43-16.34h18.86c9.08,0,16.4,7.26,16.4,16.34,0,2.02-.88,3.94-2.42,5.25-6.32,5.37-14.5,8.63-23.43,8.63Z"></path>
  </symbol>
  <symbol id="twitter" xmlns="http://www.w3.org/2000/svg" viewBox="0 0 100 100">
    <path d="m86.14,4H13.86c-5.44,0-9.86,4.42-9.86,9.86v72.29c0,5.44,4.42,9.86,9.86,9.86h72.29c5.44,0,9.86-4.42,9.86-9.86V13.86c0-5.44-4.42-9.86-9.86-9.86Zm-10.04,32.61c.04.58.04,1.17.04,1.75,0,17.8-13.55,38.32-38.32,38.32-7.64,0-14.72-2.22-20.68-6.04,1.09.12,2.14.16,3.24.16,6.3,0,12.1-2.14,16.72-5.75-5.91-.12-10.88-4-12.59-9.34,2.07.31,3.94.31,6.08-.25-6.16-1.25-10.78-6.67-10.78-13.22v-.16c1.79,1.01,3.88,1.62,6.08,1.7-3.75-2.5-6-6.71-6-11.21,0-2.51.66-4.81,1.83-6.8,6.63,8.17,16.59,13.51,27.76,14.09-1.91-9.14,4.93-16.55,13.14-16.55,3.88,0,7.37,1.62,9.84,4.25,3.04-.58,5.96-1.7,8.54-3.24-1.01,3.12-3.12,5.75-5.91,7.41,2.71-.29,5.34-1.05,7.76-2.09-1.83,2.69-4.13,5.07-6.76,6.98Z"></path>
  </symbol>
  <symbol id="facebook" xmlns="http://www.w3.org/2000/svg" viewBox="0 0 100 100">
    <path d="m86.23,3.89H13.77c-5.46,0-9.88,4.42-9.88,9.88v72.46c0,5.46,4.42,9.88,9.88,9.88h28.25v-31.35h-12.97v-14.76h12.97v-11.25c0-12.79,7.62-19.86,19.28-19.86,5.59,0,11.43,1,11.43,1v12.56h-6.44c-6.34,0-8.32,3.94-8.32,7.97v9.58h14.16l-2.26,14.76h-11.89v31.35h28.25c5.46,0,9.88-4.42,9.88-9.88V13.77c0-5.46-4.42-9.88-9.88-9.88Z"></path>
  </symbol>
  <symbol id="linkedin" xmlns="http://www.w3.org/2000/svg" viewBox="0 0 100 100">
    <path d="m89.43,4H10.55c-3.61,0-6.55,2.98-6.55,6.63v78.73c0,3.66,2.94,6.63,6.55,6.63h78.88c3.61,0,6.57-2.98,6.57-6.63V10.63c0-3.66-2.96-6.63-6.57-6.63ZM31.81,82.86h-13.64v-43.91h13.66v43.91h-.02Zm-6.82-49.9c-4.37,0-7.91-3.55-7.91-7.91s3.53-7.91,7.91-7.91,7.91,3.55,7.91,7.91-3.53,7.91-7.91,7.91Zm57.93,49.9h-13.64v-21.36c0-5.09-.1-11.64-7.08-11.64s-8.19,5.54-8.19,11.27v21.73h-13.64v-43.91h13.08v6h.18c1.83-3.45,6.28-7.08,12.92-7.08,13.8,0,16.37,9.1,16.37,20.93v24.07Z"></path>
  </symbol>
  <symbol id="youtube" xmlns="http://www.w3.org/2000/svg" viewBox="0 0 100 100">
    <path d="m42.36,38.93l19.55,11.11-19.55,11.11v-22.22Zm53.64-25.07v72.29c0,5.44-4.42,9.86-9.86,9.86H13.86c-5.44,0-9.86-4.42-9.86-9.86V13.86c0-5.44,4.42-9.86,9.86-9.86h72.29c5.44,0,9.86,4.42,9.86,9.86Zm-8.62,36.2s0-12.24-1.56-18.11c-.86-3.24-3.39-5.79-6.61-6.65-5.81-1.58-29.2-1.58-29.2-1.58,0,0-23.39,0-29.2,1.58-3.22.86-5.75,3.41-6.61,6.65-1.56,5.85-1.56,18.11-1.56,18.11,0,0,0,12.24,1.56,18.11.86,3.24,3.39,5.69,6.61,6.55,5.81,1.56,29.2,1.56,29.2,1.56,0,0,23.39,0,29.2-1.58,3.22-.86,5.75-3.31,6.61-6.55,1.56-5.85,1.56-18.09,1.56-18.09Z"></path>
  </symbol>
  <symbol id="shop-ico" xmlns="http://www.w3.org/2000/svg" viewBox="0 0 100 100">
    <path d="m81.79,5.5H18.21c-7.01,0-12.71,5.7-12.71,12.71v63.57c0,7.01,5.7,12.71,12.71,12.71h63.57c7.01,0,12.71-5.7,12.71-12.71V18.21c0-7.01-5.7-12.71-12.71-12.71Zm-44.21,73.53c-3.01,0-5.44-2.44-5.44-5.44s2.44-5.44,5.44-5.44,5.44,2.44,5.44,5.44-2.44,5.44-5.44,5.44Zm32.66,0c-3.01,0-5.44-2.44-5.44-5.44s2.44-5.44,5.44-5.44,5.44,2.44,5.44,5.44-2.44,5.44-5.44,5.44Zm11.99-48.72l-4.65,17.27c-.96,3.56-4.2,6.04-7.88,6.04h-32.72l.61,3.23c.25,1.28,1.37,2.21,2.68,2.21h32.7c1.51,0,2.72,1.21,2.72,2.72s-1.21,2.72-2.72,2.72h-32.7c-3.92,0-7.29-2.79-8.02-6.63l-5.85-30.73c-.08-.43-.45-.74-.9-.74h-5.16c-1.51,0-2.72-1.21-2.72-2.72s1.21-2.72,2.72-2.72h5.16c2.49,0,4.71,1.45,5.74,3.63h46.61c2.98,0,5.16,2.84,4.38,5.72Z"></path>
  </symbol>
  <symbol id="mail-ico" xmlns="http://www.w3.org/2000/svg" viewBox="0 0 100 100">
    <path d="m18.21,4.92c-7.01,0-12.71,5.7-12.71,12.71v63.57c0,7.01,5.7,12.71,12.71,12.71h63.57c7.01,0,12.71-5.7,12.71-12.71V17.63c0-7.01-5.7-12.71-12.71-12.71H18.21Zm30.59,47.62l-30.55-19.73c.36-3.18,3.04-5.64,6.32-5.64h50.86c3.28,0,5.96,2.46,6.32,5.64l-30.55,19.73c-.36.24-.77.36-1.19.36s-.83-.12-1.19-.36Zm5.84,5.34l27.14-17.52v24.95c0,3.52-2.84,6.36-6.36,6.36H24.57c-3.52,0-6.36-2.84-6.36-6.36v-24.95l27.14,17.52c1.39.89,3,1.37,4.65,1.37s3.26-.48,4.65-1.37Z"></path>
  </symbol>
  <symbol id="phone-ico" xmlns="http://www.w3.org/2000/svg" viewBox="0 0 100 100">
    <path d="m18.12,5.38c-7.03,0-12.75,5.72-12.75,12.75v63.75c0,7.03,5.72,12.75,12.75,12.75h63.75c7.03,0,12.75-5.72,12.75-12.75V18.12c0-7.03-5.72-12.75-12.75-12.75H18.12Zm18.07,19.26c1.93-.52,3.96.46,4.72,2.31l3.98,9.56c.68,1.63.2,3.51-1.16,4.62l-4.9,4.02c3.31,7.01,8.98,12.69,16,16l4.02-4.92c1.12-1.35,2.99-1.83,4.62-1.16l9.56,3.98c1.85.78,2.83,2.79,2.31,4.72l-2.39,8.77c-.48,1.75-2.05,2.95-3.84,2.95-24.64,0-44.62-19.98-44.62-44.62,0-1.79,1.2-3.37,2.93-3.84l8.77-2.39Z"></path>
  </symbol>
  <symbol id="user-ico" xmlns="http://www.w3.org/2000/svg" viewBox="0 0 100 100">
    <path d="m81.87,5.38H18.12c-7.03,0-12.75,5.72-12.75,12.75v63.75c0,7.03,5.72,12.75,12.75,12.75h63.75c7.03,0,12.75-5.72,12.75-12.75V18.13c0-7.03-5.72-12.75-12.75-12.75Zm-31.88,11.98c10.14,0,18.36,8.22,18.36,18.36s-8.22,18.36-18.36,18.36-18.36-8.22-18.36-18.36,8.22-18.36,18.36-18.36Zm28.73,65.28H21.27c-2.15,0-3.91-1.75-3.91-3.91,0-11.36,9.21-20.57,20.57-20.57h24.15c11.36,0,20.57,9.21,20.57,20.57,0,2.15-1.75,3.91-3.91,3.91Z"></path>
  </symbol>
  <symbol id="home-ico" xmlns="http://www.w3.org/2000/svg" viewBox="0 0 100 100">
    <path d="m48.8,33.08l-28.95,23.85v25.74c0,1.39,1.12,2.51,2.51,2.51l17.6-.05c1.38,0,2.5-1.13,2.5-2.51v-15.03c0-1.39,1.12-2.51,2.51-2.51h10.05c1.39,0,2.51,1.12,2.51,2.51v15.02c0,1.39,1.12,2.52,2.5,2.52,0,0,0,0,0,0l17.59.05c1.39,0,2.51-1.12,2.51-2.51v-25.76l-28.95-23.83c-.7-.57-1.7-.57-2.4,0h0Zm45.74,16.21l-13.13-10.82v-21.75c0-1.04-.84-1.88-1.88-1.88h-8.79c-1.04,0-1.88.84-1.88,1.88v11.4l-14.06-11.57c-2.78-2.29-6.8-2.29-9.58,0L5.45,49.28c-.8.66-.92,1.85-.25,2.65,0,0,0,0,0,0l4,4.87c.66.8,1.85.92,2.65.26,0,0,0,0,0,0l36.94-30.43c.7-.57,1.7-.57,2.4,0l36.94,30.43c.8.66,1.99.55,2.65-.25,0,0,0,0,0,0l4-4.87c.66-.8.54-1.99-.26-2.65,0,0,0,0,0,0h0Z"></path>
  </symbol>
  <symbol id="environment-ico" xmlns="http://www.w3.org/2000/svg" viewBox="0 0 100 100">
    <g id="uuid-a269fb93-7be7-4ece-a8f0-a1e0203a7d68">
      <path id="uuid-de798802-2f1d-4c4e-8b6a-637c6ee385e8" d="m93.99,82.18l-3.92-2.01,3.41-.81c.76-.13,1.26-.85,1.13-1.6,0-.04-.01-.07-.02-.11l-.41-1.36c-.29-.78-1.12-1.22-1.93-1l-7.96,1.9-7.17-3.68,7.18-3.69,7.96,1.9c.8.22,1.64-.21,1.93-1l.41-1.36c.19-.75-.26-1.5-1.01-1.69-.03,0-.07-.02-.1-.02l-3.41-.81,3.92-2.01c.67-.3.97-1.09.66-1.76-.02-.05-.05-.11-.08-.16l-.8-1.21c-.49-.68-1.4-.9-2.15-.51l-3.92,2.01.91-3.04c.19-.75-.26-1.5-1.01-1.69-.03,0-.07-.02-.1-.02l-1.51-.37c-.8-.22-1.64.21-1.93,1l-2.13,7.09-7.18,3.69v-7.39l5.84-5.19c.55-.46.61-1.28.15-1.83-.05-.05-.1-.1-.15-.15l-1.11-1c-.64-.54-1.58-.54-2.22,0l-2.49,2.22v-4.01c-.05-.82-.76-1.45-1.58-1.4,0,0,0,0,0,0h-1.56c-.82-.04-1.52.58-1.57,1.4v4.03l-2.49-2.22c-.64-.54-1.58-.54-2.22,0l-1.15,1c-.55.46-.61,1.28-.15,1.83.05.05.1.1.15.15l5.82,5.18v7.39l-7.19-3.69-2.13-7.09c-.29-.78-1.12-1.22-1.93-1l-1.52.36c-.76.13-1.26.85-1.13,1.6,0,.04.01.07.02.11l.91,3.04-3.92-2c-.74-.39-1.66-.17-2.15.51l-.79,1.22c-.39.62-.21,1.44.41,1.83.05.03.11.06.17.09l3.93,2.01-3.41.8c-.76.13-1.26.85-1.13,1.6,0,.04.01.07.02.11l.41,1.36c.29.78,1.12,1.22,1.93,1l7.96-1.9,7.18,3.68-7.19,3.69-7.96-1.9c-.8-.22-1.64.21-1.93,1l-.41,1.36c-.19.75.26,1.5,1.01,1.69.03,0,.07.02.1.02l3.41.81-3.92,2.01c-.67.3-.97,1.09-.66,1.76.02.05.05.11.08.16l.79,1.22c.49.68,1.4.9,2.15.51l3.92-2.01-.91,3.04c-.19.75.26,1.5,1.01,1.69.03,0,.07.02.1.02l1.52.36c.8.22,1.64-.21,1.93-1l2.13-7.09,7.18-3.69v7.39l-5.83,5.19c-.55.46-.61,1.28-.15,1.83.05.05.1.1.15.15l1.11,1c.64.54,1.58.54,2.22,0l2.49-2.22v4.02c.05.82.75,1.43,1.57,1.39h1.57c.82.04,1.52-.58,1.57-1.4v-4.03l2.49,2.22c.64.54,1.58.54,2.22,0l1.11-1c.55-.46.61-1.28.15-1.83-.05-.05-.1-.1-.15-.15l-5.83-5.18v-7.39l7.18,3.69,2.13,7.09c.29.78,1.12,1.22,1.93,1l1.52-.36c.76-.13,1.26-.85,1.13-1.6,0-.04-.01-.07-.02-.11l-.91-3.04,3.92,2.01c.74.39,1.66.17,2.15-.51l.79-1.22c.4-.58.26-1.37-.31-1.78-.07-.05-.15-.1-.24-.13Z"></path>
      <path id="uuid-8e56552e-c92a-4be7-83ec-4f5ed9d4f572" d="m72.39,6.6l-.72.95c-8.54,11.21-14.2,18.56-14.2,25.71,0,6.77,5.81,12.35,13.87,13.11-.04,0,.5.03,1.06.03,8.25,0,14.93-5.88,14.93-13.14s-5.84-14.72-14.93-26.66Z"></path>
      <path id="uuid-712c0c8c-b657-4091-8e50-edea370a9c95" d="m12.82,28.36h-7.59v-3.73h7.59c-.17,1.24-.17,2.49,0,3.73Zm5.66-13.64l-5.38-5.38-2.64,2.64,5.38,5.38c.77-.99,1.65-1.87,2.64-2.64Zm20.92,2.64l5.38-5.38-2.64-2.64-5.37,5.38c.98.77,1.87,1.65,2.64,2.64Zm-11.78-5.79c.62,0,1.25.05,1.87.13v-7.59h-3.73v7.59c.62-.08,1.24-.13,1.87-.13Zm0,29.85c-.62,0-1.25-.05-1.87-.13v7.59h3.73v-7.59c-.62.08-1.24.13-1.87.13Zm14.8-16.79c.17,1.24.17,2.49,0,3.73h7.59v-3.73h-7.59Zm-5.66,13.64l5.37,5.37,2.64-2.64-5.37-5.37c-.77.98-1.65,1.87-2.64,2.64h0Zm-20.92-2.64l-5.37,5.37,2.64,2.64,5.37-5.37c-.99-.77-1.87-1.65-2.64-2.64h0Zm11.78-20.33c-6.18,0-11.2,5.01-11.2,11.2s5.01,11.2,11.2,11.2,11.2-5.01,11.2-11.2-5.01-11.2-11.2-11.2Z"></path>
      <path id="uuid-2168391c-fb4a-4b69-9389-b3dac0232645" d="m25.95,68.48H7.71v-4.04h18.24c1.01-.11,1.75-1.01,1.66-2.02.09-1.01-.65-1.91-1.66-2.02-.7.05-1.29.52-1.49,1.19l-2.91-1.94c.67-1.89,2.4-3.19,4.4-3.3,6.59,0,6.58,12.13,0,12.13Zm11.61,14.15c.27-3.04-1.94-5.73-4.98-6.06H7.71v4.04h24.88c1.12.22,1.84,1.3,1.62,2.42-.16.82-.8,1.46-1.62,1.62-.7-.05-1.29-.52-1.49-1.19l-2.9,1.93c.67,1.88,2.4,3.18,4.39,3.3,3.03-.33,5.24-3.02,4.98-6.06Zm1.68-15.47c0-1.4,1.07-2.58,2.47-2.72,1.52.17,2.62,1.51,2.49,3.03.13,1.52-.97,2.87-2.49,3.03H7.71v4.04h34c3.54-.39,6.12-3.53,5.8-7.08.31-3.55-2.27-6.69-5.8-7.08-2.88.23-5.2,2.43-5.59,5.29l3.13,1.47Z"></path>
    </g>
  </symbol>
  <symbol id="power-ico" xmlns="http://www.w3.org/2000/svg" viewBox="0 0 100 100">
    <path id="uuid-3dc103e3-ab6d-46bc-9c19-ff5291efdea5" d="m75.12,32.95h-21.31l7.87-23.05c.58-2.31-.83-4.66-3.15-5.23-.37-.09-.75-.14-1.14-.13h-26.59c-2.18-.03-4.05,1.54-4.39,3.69l-5.91,42.61c-.28,2.38,1.42,4.52,3.8,4.8.2.02.4.03.59.03h21.92l-8.51,34.55c-.51,2.32.95,4.61,3.27,5.13.34.07.69.11,1.03.1,1.56.01,3.02-.8,3.84-2.13l32.5-53.98c1.18-2.03.5-4.64-1.54-5.82-.69-.4-1.49-.6-2.29-.58Z"></path>
  </symbol>
  <symbol id="motion-ico" xmlns="http://www.w3.org/2000/svg" viewBox="0 0 100 100">
    <path d="m72.37,45.22c.6.8,1,1.61,1,2.5,0,1.01-.4,1.91-1,2.51-.71.7-1.51,1-2.51,1h-7.52l-5.12-5.01-4.61,7.02,10.53,20.56c.3.4.61.9.7,1.5.1.4.2.7.2,1.2,0,1.31-.5,2.41-1.4,3.31-.91,1.01-2.01,1.4-3.31,1.4s-2.41-.39-3.31-1.4c-.2-.1-.3-.19-.4-.4-.41-.51-.71-1.1-.8-1.71l-8.73-16.84-2.91,11.23h-16.95c-1.21-.11-2.3-.51-3.21-1.41-.9-.9-1.3-2.01-1.3-3.32s.4-2.4,1.3-3.3c.8-.8,1.7-1.3,2.81-1.3h10.83l3.12-12.84,5.11-8.62h-5.11l-4.22,5.21-.8.91c-.6.59-1.41.89-2.3.89s-1.82-.31-2.52-1.1c-.7-.6-1-1.5-1-2.41,0-.6.1-1.1.31-1.6l.8-1.01,6.22-8.63h15.09c-1.3-1.3-2-3.1-2-5.01,0-2.01.7-3.71,2-5.12,1.5-1.41,3.21-2.11,5.12-2.11s3.71.7,5.01,2.11c1.4,1.41,2.21,3.11,2.21,5.12s-.81,3.71-2.21,5.01c-.95,1.03-2.18,1.72-3.5,2.03l7.46,8.59h4.41c1,0,1.81.41,2.51,1.01ZM19.32,24.56c-3.41,3.84-5.23,8.34-5.39,13.23-.07.4-.08.94-.08,1.33,0,4.7,1.34,8.98,3.99,12.71.24.33.61.51.98.51.24,0,.48-.07.7-.22.54-.38.67-1.14.28-1.68-2.35-3.31-3.54-7.12-3.54-11.31,0-.27,0-.64.06-1.09.15-4.47,1.77-8.47,4.8-11.88.44-.5.4-1.26-.1-1.7-.5-.44-1.26-.4-1.7.1Zm61.37,0c-.44-.5-1.2-.54-1.7-.1-.5.44-.54,1.2-.1,1.7,3.02,3.39,4.65,7.39,4.86,11.84v1.13c0,4.19-1.19,7.99-3.54,11.31-.38.54-.26,1.29.29,1.68.21.15.45.22.7.22.38,0,.75-.18.98-.51,2.64-3.74,3.98-8.01,3.98-12.7v-1.18c-.24-5.07-2.08-9.57-5.47-13.38ZM9.23,19.22c-4.38,5.39-6.66,11.7-6.75,18.53-.09.41-.09.79-.09,1.1,0,6.64,1.83,12.62,5.44,17.76.23.33.61.51.99.51.24,0,.48-.07.69-.22.54-.38.68-1.13.29-1.68-3.32-4.73-5-10.24-5-16.38,0-.23,0-.43.06-.82.11-6.51,2.2-12.32,6.24-17.28.42-.52.34-1.27-.17-1.69-.51-.42-1.27-.34-1.69.17Zm81.54,0c-.42-.52-1.18-.59-1.69-.17-.52.42-.6,1.18-.17,1.69,4.02,4.94,6.14,10.76,6.3,17.26v.84c0,6.15-1.68,11.66-5,16.38-.38.54-.25,1.29.29,1.68.21.15.45.22.69.22.38,0,.75-.18.99-.51,3.61-5.13,5.44-11.1,5.44-17.76v-.87c-.18-7.08-2.48-13.39-6.84-18.76Z"></path>
  </symbol>
  <symbol id="motion-2-ico" xmlns="http://www.w3.org/2000/svg" viewBox="0 0 100 100">
    <g id="uuid-d206bcc3-7332-4766-9fc8-c0607f6fc680">
      <path id="uuid-37278732-879a-4d3c-821a-d4723f900c4d" d="m61.33,81.46c17.72.34,32.36-13.74,32.72-31.46-.35-17.72-15-31.8-32.72-31.46-17.72-.34-32.36,13.74-32.72,31.46.35,17.72,15,31.8,32.72,31.46Z"></path>
      <path id="uuid-8b7386e6-dafa-4a98-b12b-c642c2b40464" d="m28.36,18.54h31.38l-6.28,5.03h-25.11v-5.03Z"></path>
      <rect id="uuid-0d518a1e-4f06-4321-b114-2dbedb20618a" x="16.02" y="28.19" width="12.58" height="5.03"></rect>
      <path id="uuid-18cda916-5c3c-4334-ac99-505f218a2916" d="m28.36,81.46h31.38l-6.28-5.03h-25.11v5.03Z"></path>
      <rect id="uuid-8dd39ac5-4230-47a1-a27f-4d11119da876" x="16.02" y="66.78" width="12.58" height="5.03"></rect>
      <rect id="uuid-05d91fb8-3da9-467b-964f-4952119894e2" x="5.96" y="48.03" width="20.13" height="5.03"></rect>
    </g>
  </symbol>
  <symbol id="sensor-ico" xmlns="http://www.w3.org/2000/svg" viewBox="0 0 100 100">
    <path id="uuid-f655c8e4-adf8-4e66-a69b-8b06c3e9eb43" d="m48.31,91.53h0c-2.06-.01-3.84-1.45-4.28-3.47l-8.85-40.57-4.04,7.39c-.77,1.41-2.25,2.29-3.86,2.29H4.56v-8.81h20.11l8.45-15.44c.88-1.61,2.67-2.51,4.49-2.25,1.82.26,3.28,1.62,3.68,3.42l7.19,32.94,12.76-55.16c.47-2.03,2.3-3.45,4.38-3.41,2.08.05,3.84,1.55,4.23,3.59l6.81,36.3h18.79v8.81h-22.47c-2.12,0-3.94-1.51-4.33-3.59l-3.61-19.23-12.43,53.76c-.46,2-2.24,3.42-4.29,3.42Z"></path>
  </symbol>
  <symbol id="gateway-ico" xmlns="http://www.w3.org/2000/svg" viewBox="0 0 100 100">
    <path d="m47.26,17.8c.98.96,2.52,1.05,3.6.2,11.1-9.26,27.23-9.26,38.32,0,1.09.83,2.61.74,3.6-.2l.2-.25c1.06-1.1,1.03-2.86-.07-3.92-.03-.03-.06-.05-.08-.08-13.12-11.33-32.55-11.33-45.67,0-1.14.97-1.28,2.68-.31,3.82.05.06.11.12.16.18l.25.25h0Zm8.5,3.8c-1.15.95-1.32,2.66-.36,3.82.05.06.11.12.16.18l.2.2c.98.96,2.52,1.04,3.6.2,3.07-2.29,6.81-3.5,10.64-3.45,3.82-.05,7.56,1.14,10.64,3.4,1.07.87,2.63.78,3.6-.2l.2-.2c1.06-1.03,1.07-2.72.04-3.78-.08-.08-.16-.15-.24-.22-4.07-3.18-9.07-4.94-14.24-4.99-5.17.04-10.18,1.81-14.24,5.02v.02Zm29.23,33.43h-9.98v-14.97c0-2.76-2.23-4.99-4.99-4.99s-4.99,2.23-4.99,4.99v14.97H15.02c-5.5.02-9.96,4.48-9.98,9.98v19.96c.02,5.5,4.48,9.96,9.98,9.98h69.96c5.5-.02,9.96-4.48,9.98-9.98v-19.96c-.01-5.51-4.47-9.98-9.98-10v.02Zm-54.99,24.96h-9.98v-9.98h9.98v9.98Zm17.48,0h-9.98v-9.98h9.98v9.98Zm17.48,0h-9.98v-9.98h9.98v9.98Z"></path>
  </symbol>
  <symbol id="menu-ico" xmlns="http://www.w3.org/2000/svg" viewBox="0 0 100 100">
    <path d="m5.34,19.39c0-3.53,2.85-6.38,6.38-6.38h76.56c3.53,0,6.38,2.85,6.38,6.38s-2.85,6.38-6.38,6.38H11.72c-3.53,0-6.38-2.85-6.38-6.38Zm0,31.9c0-3.53,2.85-6.38,6.38-6.38h76.56c3.53,0,6.38,2.85,6.38,6.38s-2.85,6.38-6.38,6.38H11.72c-3.53,0-6.38-2.85-6.38-6.38Zm89.32,31.9c0,3.53-2.85,6.38-6.38,6.38H11.72c-3.53,0-6.38-2.85-6.38-6.38s2.85-6.38,6.38-6.38h76.56c3.53,0,6.38,2.85,6.38,6.38Z"></path>
  </symbol>
  <symbol id="find-ico" xmlns="http://www.w3.org/2000/svg" viewBox="0 0 100 100">
    <path d="m75.74,42.27c0,7.38-2.4,14.21-6.44,19.74l20.37,20.38c2.01,2.01,2.01,5.28,0,7.29-2.01,2.01-5.28,2.01-7.29,0l-20.37-20.38c-5.53,4.05-12.36,6.44-19.74,6.44-18.49,0-33.46-14.98-33.46-33.46S23.79,8.81,42.28,8.81s33.46,14.98,33.46,33.46Zm-33.46,23.17c12.8,0,23.17-10.37,23.17-23.17s-10.37-23.17-23.17-23.17-23.17,10.37-23.17,23.17,10.37,23.17,23.17,23.17Z"></path>
  </symbol>
  <symbol id="filter-ico" xmlns="http://www.w3.org/2000/svg" viewBox="0 0 100 100">
    <path d="m42.77,74.09h14.46c1.1,0,2-.9,2-2v-5.23c0-1.1-.9-2-2-2h-14.46c-1.1,0-2,.9-2,2v5.23c0,1.1.9,2,2,2ZM8.46,20.71v5.23c0,1.1.9,2,2,2h79.07c1.1,0,2-.9,2-2v-5.23c0-1.1-.9-2-2-2H10.46c-1.1,0-2,.9-2,2Zm15.85,30.3h51.38c1.1,0,2-.9,2-2v-5.23c0-1.1-.9-2-2-2H24.31c-1.1,0-2,.9-2,2v5.23c0,1.1.9,2,2,2Z"></path>
  </symbol>
  <symbol id="question-ico" xmlns="http://www.w3.org/2000/svg" viewBox="0 0 100 100">
    <path d="m50,99.23c26.51,0,48-21.49,48-48S76.51,3.23,50,3.23,2,24.72,2,51.23s21.49,48,48,48Zm-16.16-65.01c1.48-4.18,5.46-6.99,9.9-6.99h10.93c6.54,0,11.83,5.31,11.83,11.83,0,4.24-2.27,8.16-5.94,10.28l-6.06,3.47c-.04,2.44-2.04,4.43-4.5,4.43s-4.5-2.01-4.5-4.5v-2.53c0-1.61.86-3.09,2.27-3.9l8.31-4.76c.88-.51,1.43-1.44,1.43-2.46,0-1.57-1.27-2.83-2.83-2.83h-10.93c-.64,0-1.2.39-1.41.99l-.07.22c-.82,2.34-3.41,3.56-5.74,2.74s-3.56-3.41-2.74-5.74l.07-.22-.02-.02Zm22.16,35.01c0,3.32-2.68,6-6,6s-6-2.68-6-6,2.68-6,6-6,6,2.68,6,6Z"></path>
  </symbol>
  <symbol id="bell-ico" xmlns="http://www.w3.org/2000/svg" viewBox="0 0 100 100">
    <path id="uuid-23004803-cda2-447a-92ce-b4fbf51bac06" d="m50,96.66c5.28-.01,9.56-4.29,9.57-9.57h-19.14c.01,5.28,4.29,9.56,9.57,9.57Zm28.72-28.72v-23.93c1.01-13.93-8.03-26.61-21.53-30.21v-3.29c0-3.97-3.22-7.17-7.17-7.17s-7.17,3.22-7.17,7.17h0v3.25c-13.49,3.61-22.53,16.28-21.53,30.21v23.95l-9.58,9.57v4.77h76.55v-4.77l-9.56-9.57h0Zm-9.57,4.79H30.86v-28.72c-1.26-10.57,6.28-20.17,16.85-21.44,10.57-1.26,20.17,6.28,21.44,16.85.18,1.52.18,3.06,0,4.58,0,0,0,28.72,0,28.72Z"></path>
  </symbol>
  <symbol id="support" xmlns="http://www.w3.org/2000/svg" viewBox="0 0 96 96">
    <g id="uuid-d39aa8e5-8fc5-4bb6-b005-5a0d4c1c0316">
      <path d="m48,0C21.49,0,0,21.49,0,48s21.49,48,48,48,48-21.49,48-48S74.51,0,48,0Zm-11.54,63.38h-1.92c-4.24,0-7.69-3.45-7.69-7.69v-5.77c0-4.24,3.45-7.69,7.69-7.69h1.92c2.13,0,3.85,1.72,3.85,3.85v13.46c0,2.13-1.72,3.85-3.85,3.85Zm42.3,1.93c0,5.84-4.74,10.58-10.59,10.58h-13.26c-1,1.71-2.86,2.87-5,2.87h-3.85c-3.18,0-5.77-2.58-5.77-5.77s2.58-5.77,5.77-5.77h3.85c2.14,0,4,1.17,5,2.88h13.27c2.66.01,4.81-2.14,4.81-4.8v-17.32c0-13.81-11.19-25-25-25s-25,11.19-25,25v4.81c0,1.6-1.29,2.88-2.88,2.88s-2.88-1.29-2.88-2.88v-4.81c0-16.99,13.77-30.77,30.77-30.77s30.77,13.77,30.77,30.77v17.32Zm-23.08-5.78v-13.46c0-2.13,1.72-3.85,3.85-3.85h1.92c4.24,0,7.69,3.45,7.69,7.69v5.77c0,4.24-3.45,7.69-7.69,7.69h-1.92c-2.13,0-3.85-1.72-3.85-3.85Z"></path>
    </g>
  </symbol>
  
</svg>



