<?xml version="1.0" encoding="UTF-8"?>
<svg id="uuid-0e44cbb9-73b1-4364-b59d-ff45062a381b" data-name="Layer 1" xmlns="http://www.w3.org/2000/svg" xmlns:xlink="http://www.w3.org/1999/xlink" viewBox="0 0 100 100">
  <defs>
    <linearGradient id="uuid-10b42aef-298c-4b28-b6bd-aadfe7e4cf07" x1="5.96" y1="50.55" x2="95.21" y2="50.55" gradientUnits="userSpaceOnUse">
      <stop offset="0" stop-color="#0067ab"/>
      <stop offset=".02" stop-color="#0e6faf"/>
      <stop offset=".07" stop-color="#3084ba"/>
      <stop offset=".09" stop-color="#3d8cbf"/>
      <stop offset=".12" stop-color="#408dbf"/>
      <stop offset=".14" stop-color="#4c93c2"/>
      <stop offset=".17" stop-color="#5e9dc6"/>
      <stop offset=".18" stop-color="#6ea5ca"/>
      <stop offset=".24" stop-color="#639fc7"/>
      <stop offset=".34" stop-color="#4791c1"/>
      <stop offset=".35" stop-color="#4590c1"/>
      <stop offset=".37" stop-color="#4c93c2"/>
      <stop offset=".4" stop-color="#5f9ec7"/>
      <stop offset=".44" stop-color="#7fafcf"/>
      <stop offset=".45" stop-color="#8db7d3"/>
      <stop offset=".49" stop-color="#72a9ce"/>
      <stop offset=".52" stop-color="#67a4cd"/>
      <stop offset=".59" stop-color="#72abd0"/>
      <stop offset=".65" stop-color="#5e9fca"/>
      <stop offset=".89" stop-color="#3d8cbf"/>
      <stop offset=".89" stop-color="#3a8abe"/>
      <stop offset=".94" stop-color="#1a77b3"/>
      <stop offset=".97" stop-color="#076bad"/>
      <stop offset="1" stop-color="#0067ab"/>
    </linearGradient>
  </defs>
  <path d="m18.71,5.92c-7.03,0-12.75,5.72-12.75,12.75v63.75c0,7.03,5.72,12.75,12.75,12.75h63.75c7.03,0,12.75-5.72,12.75-12.75V18.67c0-7.03-5.72-12.75-12.75-12.75H18.71Zm18.07,19.26c1.93-.52,3.96.46,4.72,2.31l3.98,9.56c.68,1.63.2,3.51-1.16,4.62l-4.9,4.02c3.31,7.01,8.98,12.69,16,16l4.02-4.92c1.12-1.35,2.99-1.83,4.62-1.16l9.56,3.98c1.85.78,2.83,2.79,2.31,4.72l-2.39,8.77c-.48,1.75-2.05,2.95-3.84,2.95-24.64,0-44.62-19.98-44.62-44.62,0-1.79,1.2-3.37,2.93-3.84l8.77-2.39Z" fill="url(#uuid-10b42aef-298c-4b28-b6bd-aadfe7e4cf07)"/>
</svg>