<svg xmlns="http://www.w3.org/2000/svg" data-name="Layer 1" viewBox="0 0 100 100"><defs><linearGradient id="a" x1=".86" x2="99.14" y1="51.11" y2="51.11" gradientUnits="userSpaceOnUse"><stop offset="0" stop-color="#a2a2a2"/><stop offset=".09" stop-color="#e6e6e6"/><stop offset=".14" stop-color="#ddd"/><stop offset=".2" stop-color="#cecece"/><stop offset=".32" stop-color="#dfdfdf"/><stop offset=".48" stop-color="#cdcdcd"/><stop offset=".55" stop-color="#cbcbcb"/><stop offset=".57" stop-color="#c4c4c4"/><stop offset=".57" stop-color="#c3c3c3"/><stop offset=".66" stop-color="silver"/><stop offset=".84" stop-color="#e6e6e6"/><stop offset=".87" stop-color="#e0e0e0"/><stop offset=".9" stop-color="#d0d0d0"/><stop offset=".94" stop-color="#b6b6b6"/><stop offset=".99" stop-color="#919191"/><stop offset=".99" stop-color="#8d8d8d"/></linearGradient></defs><path fill="url(#a)" d="M50 100.25c27.14 0 49.14-22 49.14-49.14S77.14 1.96 50 1.96.86 23.97.86 51.11s22 49.14 49.14 49.14Zm-7.68-33.79h4.61V54.17h-4.61c-2.55 0-4.61-2.05-4.61-4.61s2.05-4.61 4.61-4.61h9.21c2.55 0 4.61 2.05 4.61 4.61v16.89h1.54c2.55 0 4.61 2.05 4.61 4.61s-2.05 4.61-4.61 4.61H42.32c-2.55 0-4.61-2.05-4.61-4.61s2.05-4.61 4.61-4.61ZM50 26.53c3.39 0 6.14 2.75 6.14 6.14s-2.75 6.14-6.14 6.14-6.14-2.75-6.14-6.14 2.75-6.14 6.14-6.14Z"/></svg>