<svg xmlns="http://www.w3.org/2000/svg" data-name="Layer 1" viewBox="0 0 100 100"><defs><linearGradient id="a" x1="2" x2="98" y1="50" y2="50" gradientUnits="userSpaceOnUse"><stop offset="0" stop-color="#a2a2a2"/><stop offset=".09" stop-color="#e6e6e6"/><stop offset=".14" stop-color="#ddd"/><stop offset=".2" stop-color="#cecece"/><stop offset=".32" stop-color="#dfdfdf"/><stop offset=".48" stop-color="#cdcdcd"/><stop offset=".55" stop-color="#cbcbcb"/><stop offset=".57" stop-color="#c4c4c4"/><stop offset=".57" stop-color="#c3c3c3"/><stop offset=".66" stop-color="silver"/><stop offset=".84" stop-color="#e6e6e6"/><stop offset=".87" stop-color="#e0e0e0"/><stop offset=".9" stop-color="#d0d0d0"/><stop offset=".94" stop-color="#b6b6b6"/><stop offset=".99" stop-color="#919191"/><stop offset=".99" stop-color="#8d8d8d"/></linearGradient></defs><path fill="url(#a)" d="M50 2C23.49 2 2 23.49 2 50s21.49 48 48 48 48-21.49 48-48S76.51 2 50 2ZM38.46 65.38h-1.92c-4.24 0-7.69-3.45-7.69-7.69v-5.77c0-4.24 3.45-7.69 7.69-7.69h1.92c2.13 0 3.85 1.72 3.85 3.85v13.46c0 2.13-1.72 3.85-3.85 3.85Zm42.3 1.93c0 5.84-4.74 10.58-10.59 10.58H56.91c-1 1.71-2.86 2.87-5 2.87h-3.85c-3.18 0-5.77-2.58-5.77-5.77s2.58-5.77 5.77-5.77h3.85c2.14 0 4 1.17 5 2.88h13.27a4.79 4.79 0 0 0 4.81-4.8V49.98c0-13.81-11.19-25-25-25s-25 11.19-25 25v4.81a2.88 2.88 0 0 1-5.76 0v-4.81C19.23 32.99 33 19.21 50 19.21s30.77 13.77 30.77 30.77V67.3Zm-23.08-5.78V48.07c0-2.13 1.72-3.85 3.85-3.85h1.92c4.24 0 7.69 3.45 7.69 7.69v5.77c0 4.24-3.45 7.69-7.69 7.69h-1.92c-2.13 0-3.85-1.72-3.85-3.85Z"/></svg>