<svg xmlns="http://www.w3.org/2000/svg" xmlns:xlink="http://www.w3.org/1999/xlink" data-name="Layer 1" viewBox="0 0 100 100"><defs><linearGradient id="a" x1=".86" x2="99.14" y1="51.11" y2="51.11" gradientUnits="userSpaceOnUse"><stop offset="0" stop-color="#a2a2a2"/><stop offset=".09" stop-color="#e6e6e6"/><stop offset=".14" stop-color="#ddd"/><stop offset=".2" stop-color="#cecece"/><stop offset=".32" stop-color="#dfdfdf"/><stop offset=".48" stop-color="#cdcdcd"/><stop offset=".55" stop-color="#cbcbcb"/><stop offset=".57" stop-color="#c4c4c4"/><stop offset=".57" stop-color="#c3c3c3"/><stop offset=".66" stop-color="silver"/><stop offset=".84" stop-color="#e6e6e6"/><stop offset=".87" stop-color="#e0e0e0"/><stop offset=".9" stop-color="#d0d0d0"/><stop offset=".94" stop-color="#b6b6b6"/><stop offset=".99" stop-color="#919191"/><stop offset=".99" stop-color="#8d8d8d"/></linearGradient><linearGradient xlink:href="#a" id="b" x1="41.84" x2="58.26" y1="28.79" y2="28.79"/></defs><path fill="url(#a)" d="M50 1.96C22.86 1.96.86 23.96.86 51.11s22 49.14 49.14 49.14 49.14-22 49.14-49.14S77.14 1.96 50 1.96ZM23.3 88.17l-.82-3.25c-.58-2.29-.27-4.72.87-6.8l8.08-14.6c1.2 4.94 2.62 10.11 4.39 16.59L23.3 88.17Zm31.19 0h-8.96l-1.71-6.18h12.36l-1.69 6.18ZM41.91 78.9c-3.81-14.01-7.35-26.16-7.35-36.48 0-11.44 4.67-20.67 15.44-28.39 10.99 7.77 15.57 16.76 15.44 28.28-.11 10.09-3.6 22.17-7.25 36.59H41.9Zm35.61 6.01-.82 3.25-12.45-8.02c1.76-6.86 3.02-11.69 4.23-16.81l8.17 14.78c1.14 2.07 1.45 4.5.87 6.79Z"/><path fill="url(#b)" d="M50.04 21.89a26.336 26.336 0 0 0-8.2 12.43c2.6 1 5.38 1.45 8.16 1.34 2.82.13 5.64-.35 8.26-1.41-1.44-4.85-4.3-9.16-8.22-12.36Z"/></svg>